# xmcd CD database file
#
# Track frame offsets:
#	183
#	15240
#	25485
#	35645
#	47633
#	59675
#	70983
#	81265
#	92960
#	103768
#	114428
#	122315
#
# Disc length: 1787 seconds
#
# Revision: 1
# Processed by: cddbd v1.5.2PL0 Copyright (c) Steve Scherf et al.
# Submitted via: jetAudio 7
#
DISCID=9d06f90c
DTITLE=Jackson Chuck - Golden Classics
DYEAR=1991
DGENRE=Blues
TTITLE0=Any Day Now
TTITLE1=I'm Your Man
TTITLE2=I Don't Want To Cry
TTITLE3=Since I Don't Have You
TTITLE4=I Keep Forgettin'
TTITLE5=Hand It Over
TTITLE6=I Wake Up Crying
TTITLE7=Beg Me
TTITLE8=Any Other Way
TTITLE9=The Breaking Point
TTITLE10=Make The Night A Little Longer
TTITLE11=Tell Him I'm Not Home
EXTD=
EXTT0=
EXTT1=
EXTT2=
EXTT3=
EXTT4=
EXTT5=
EXTT6=
EXTT7=
EXTT8=
EXTT9=
EXTT10=
EXTT11=
PLAYORDER=
